<svg width="11" height="12" viewBox="0 0 11 12" fill="none" xmlns="http://www.w3.org/2000/svg">
<path d="M4.14811 0.946937C2.74403 1.32245 1.5522 2.26939 0.931788 3.51837C0.466482 4.43265 0.360359 4.9551 0.409339 6.04081C0.441992 6.69388 0.499135 7.02857 0.6624 7.4449C1.22567 8.90612 2.34403 10 3.73179 10.449C4.28689 10.6286 4.30322 10.6367 4.32771 10.9306L4.3522 11.2245H5.29097H6.22975L6.25424 10.9388C6.27873 10.6531 6.29505 10.6449 6.87464 10.4653C8.45832 9.97551 9.79709 8.47347 10.1481 6.81632C10.5073 5.1102 10.0257 3.50204 8.80934 2.28571C8.1073 1.59184 7.50322 1.23265 6.59709 0.987753C5.87056 0.783671 4.8175 0.767344 4.14811 0.946937ZM3.82158 2.87347C4.71138 3.32245 4.80118 4.58775 4.00118 5.18367C3.82975 5.31428 3.65015 5.34694 3.20934 5.34694C2.53995 5.34694 2.28689 5.20816 2.02567 4.68571C1.68281 3.99183 1.92771 3.21632 2.59709 2.87347C2.79301 2.77551 3.07056 2.69388 3.20934 2.69388C3.34811 2.69388 3.62566 2.77551 3.82158 2.87347ZM7.92771 2.80816C8.5073 3.0449 8.89097 3.74694 8.76852 4.34285C8.70322 4.66939 8.36852 5.1102 8.06648 5.2653C7.71546 5.4449 7.03791 5.42041 6.71138 5.21632C5.98485 4.76734 5.8624 3.64898 6.49097 3.08571C6.88281 2.72653 7.47056 2.61224 7.92771 2.80816ZM2.86648 6.37551C3.16852 6.53061 3.33179 6.8 3.33179 7.15102C3.33179 7.55918 3.11138 7.86939 2.72771 8C2.18077 8.17959 1.57669 7.72245 1.59301 7.13469C1.60934 6.50612 2.30322 6.08979 2.86648 6.37551ZM8.62975 6.4C9.04607 6.62041 9.18485 7.31428 8.88281 7.69796C8.68689 7.94285 8.24607 8.10612 7.96036 8.04081C7.69097 7.96734 7.36444 7.60816 7.29913 7.30612C7.23383 6.99592 7.4624 6.53061 7.73995 6.39183C8.00934 6.25306 8.3522 6.26122 8.62975 6.4ZM5.94403 7.36326C7.02975 7.9102 6.85832 9.49388 5.68281 9.86939C5.10322 10.0571 4.40934 9.73061 4.09913 9.13469C3.90322 8.74285 3.9522 8.1551 4.22158 7.77959C4.65424 7.18367 5.28281 7.03673 5.94403 7.36326Z" fill="#667080"/>
<path d="M2.85876 3.64074C2.67917 3.76319 2.61387 4.17951 2.74448 4.37543C2.9404 4.67747 3.50366 4.6938 3.65876 4.40808C3.96897 3.83666 3.38121 3.27339 2.85876 3.64074Z" fill="#667080"/>
<path d="M7.03824 3.72243C6.87497 3.87753 6.84232 3.97549 6.88313 4.14692C6.90762 4.26937 6.98109 4.40815 7.03007 4.46529C7.08722 4.51427 7.22599 4.58774 7.34844 4.61223C7.51987 4.65304 7.61783 4.62039 7.77293 4.45713C8.03415 4.20406 8.04232 3.91835 7.79742 3.68978C7.54436 3.45304 7.2913 3.46121 7.03824 3.72243Z" fill="#667080"/>
<path d="M2.18892 6.97961C2.06647 7.12655 2.15627 7.4041 2.34402 7.4694C2.67055 7.56736 2.91545 7.30614 2.76035 7.01226C2.65422 6.83267 2.33586 6.80818 2.18892 6.97961Z" fill="#667080"/>
<path d="M7.92066 6.9551C7.77372 7.10204 7.80638 7.33061 7.98597 7.42857C8.32066 7.60816 8.63903 7.31428 8.45944 6.98775C8.36964 6.83265 8.05944 6.81632 7.92066 6.9551Z" fill="#667080"/>
<path d="M4.96493 8.16318C4.80167 8.32644 4.75269 8.69379 4.86697 8.86522C5.14452 9.28971 5.86289 9.0693 5.86289 8.55502C5.86289 8.2693 5.60167 7.99991 5.33228 7.99991C5.21799 7.99991 5.05473 8.07338 4.96493 8.16318Z" fill="#667080"/>
</svg>
